<svg width="30" height="30" viewBox="0 0 30 30" fill="none" xmlns="http://www.w3.org/2000/svg">
<path d="M26 0H4C1.79086 0 0 1.79086 0 4V26C0 28.2091 1.79086 30 4 30H26C28.2091 30 30 28.2091 30 26V4C30 1.79086 28.2091 0 26 0Z" fill="#50ABF1"/>
<path d="M3.97488 22.2383C5.97146 23.5046 8.33983 24.2374 10.8786 24.2374C18.0111 24.2374 23.7928 18.4549 23.7928 11.3232C23.7928 11.1451 23.7891 10.9684 23.7822 10.7921C24.0402 10.5891 25.6358 9.31028 26.0268 8.48815C26.0268 8.48815 24.7311 9.02662 23.463 9.15347C23.4605 9.15347 23.4574 9.15407 23.4549 9.15407C23.4549 9.15407 23.4574 9.15282 23.4618 9.14972C23.5786 9.07165 25.2122 7.95961 25.4334 6.63462C25.4334 6.63462 24.5169 7.12379 23.2337 7.55174C23.0213 7.62231 22.799 7.69169 22.5697 7.75601C21.7425 6.87325 20.5668 6.32227 19.2618 6.32227C16.7585 6.32227 14.7301 8.35011 14.7301 10.8514C14.7301 11.2044 14.7707 11.548 14.8475 11.8778C14.4977 11.8635 9.17071 11.5648 5.54673 7.17619C5.54673 7.17619 3.38085 10.133 6.83743 13.1735C6.83743 13.1735 5.78668 13.1316 4.88015 12.59C4.88015 12.59 4.54719 16.1721 8.46167 17.088C8.46167 17.088 7.69142 17.3797 6.4626 17.1717C6.4626 17.1717 7.14978 20.066 10.6276 20.3365C10.6276 20.3365 7.87751 22.8209 3.97363 22.238L3.97488 22.2383Z" fill="white"/>
</svg>
