<svg width="53" height="53" viewBox="0 0 53 53" fill="none" xmlns="http://www.w3.org/2000/svg">
<g clip-path="url(#clip0)">
<path d="M18.6125 41.552L10.7055 45.865C10.2415 46.118 9.82452 46.429 9.43652 46.768C14.0465 50.655 19.9975 53 26.4995 53C32.9535 53 38.8665 50.69 43.4635 46.856C43.0395 46.498 42.5795 46.176 42.0695 45.922L33.6025 41.689C32.5085 41.142 31.8175 40.024 31.8175 38.801V35.479C32.0555 35.208 32.3275 34.86 32.6185 34.449C33.7725 32.819 34.6455 31.026 35.2505 29.145C36.3365 28.81 37.1365 27.807 37.1365 26.615V23.069C37.1365 22.289 36.7895 21.592 36.2505 21.104V15.978C36.2505 15.978 37.3035 8.00101 26.5005 8.00101C15.6975 8.00101 16.7505 15.978 16.7505 15.978V21.104C16.2105 21.592 15.8645 22.289 15.8645 23.069V26.615C15.8645 27.549 16.3555 28.371 17.0905 28.846C17.9765 32.703 20.2965 35.479 20.2965 35.479V38.719C20.2955 39.899 19.6495 40.986 18.6125 41.552Z" fill="#E7ECED"/>
<path d="M26.9529 0.0040072C12.3199 -0.245993 0.253949 11.414 0.00394877 26.047C-0.138051 34.344 3.55995 41.801 9.44795 46.76C9.83295 46.424 10.2459 46.116 10.7049 45.866L18.6119 41.553C19.6489 40.987 20.2949 39.9 20.2949 38.718V35.478C20.2949 35.478 17.9739 32.702 17.0889 28.845C16.3549 28.37 15.8629 27.549 15.8629 26.614V23.068C15.8629 22.288 16.2099 21.591 16.7489 21.103V15.977C16.7489 15.977 15.6959 8.00001 26.4989 8.00001C37.3019 8.00001 36.249 15.977 36.249 15.977V21.103C36.789 21.591 37.1349 22.288 37.1349 23.068V26.614C37.1349 27.806 36.335 28.809 35.249 29.144C34.644 31.025 33.771 32.818 32.617 34.448C32.326 34.859 32.0539 35.207 31.8159 35.478V38.8C31.8159 40.023 32.507 41.142 33.601 41.688L42.068 45.921C42.576 46.175 43.035 46.496 43.458 46.853C49.168 42.091 52.8569 34.971 52.9939 26.953C53.2459 12.32 41.5869 0.254007 26.9529 0.0040072Z" fill="#0A4EFF"/>
</g>
<defs>
<clipPath id="clip0">
<rect width="53" height="53" fill="white"/>
</clipPath>
</defs>
</svg>
