<svg width="23" height="23" viewBox="0 0 23 23" fill="none" xmlns="http://www.w3.org/2000/svg">
<g clip-path="url(#clip0)">
<path fill-rule="evenodd" clip-rule="evenodd" d="M19.7948 13.268C20.5577 14.0129 21.363 14.7137 22.0472 15.5337C22.3495 15.8981 22.6357 16.2742 22.8546 16.697C23.1648 17.2982 22.8839 17.9597 22.3448 17.9956L18.9941 17.9941C18.1299 18.0658 17.4405 17.7179 16.8608 17.127C16.3969 16.6545 15.9673 16.1516 15.5212 15.6631C15.3384 15.4635 15.1469 15.2756 14.9183 15.1271C14.4609 14.8302 14.0638 14.9211 13.8024 15.3982C13.5362 15.8834 13.4758 16.4207 13.4497 16.9615C13.4138 17.7505 13.1753 17.9579 12.3827 17.994C10.6889 18.0739 9.08144 17.8176 7.58814 16.9632C6.27158 16.2099 5.25065 15.1465 4.36204 13.9426C2.63191 11.5984 1.30696 9.02254 0.116158 6.37447C-0.151883 5.77785 0.0441411 5.4576 0.702417 5.44626C1.79551 5.42503 2.88846 5.42654 3.98284 5.44475C4.42711 5.45125 4.72122 5.70606 4.89276 6.12577C5.48416 7.57993 6.2078 8.96344 7.11614 10.2458C7.35803 10.5873 7.60468 10.9287 7.95593 11.169C8.3445 11.4351 8.64035 11.3469 8.82315 10.914C8.93915 10.6395 8.98993 10.3439 9.01608 10.05C9.10268 9.03863 9.11409 8.02904 8.9622 7.02126C8.86894 6.3923 8.51468 5.98514 7.88708 5.86612C7.56683 5.80544 7.61451 5.68627 7.76958 5.50347C8.0389 5.18819 8.29221 4.99194 8.79715 4.99194H12.584C13.1801 5.1096 13.3125 5.37742 13.3941 5.97728L13.3974 10.1836C13.3909 10.4159 13.5134 11.105 13.9317 11.2587C14.2664 11.3681 14.4871 11.1003 14.6879 10.888C15.5946 9.92573 16.2417 8.7885 16.8198 7.61092C17.0764 7.09312 17.2969 6.55538 17.5107 6.01809C17.6691 5.61939 17.9177 5.42321 18.3668 5.4319L22.0113 5.43515C22.1194 5.43515 22.2288 5.43674 22.3334 5.45465C22.9476 5.55931 23.1159 5.8235 22.9262 6.42321C22.6273 7.36411 22.0458 8.14821 21.4772 8.93593C20.8694 9.77694 20.2194 10.5891 19.6167 11.4351C19.0629 12.2077 19.1069 12.5971 19.7948 13.268Z" fill="white"/>
</g>
<defs>
<clipPath id="clip0">
<rect width="23" height="23" fill="white"/>
</clipPath>
</defs>
</svg>
