<svg width="21" height="21" viewBox="0 0 21 21" fill="none" xmlns="http://www.w3.org/2000/svg">
<path d="M20.1815 4.37927C19.4234 3.47816 18.0239 3.1106 15.3511 3.1106H5.64873C2.91473 3.1106 1.49147 3.50187 0.736287 4.46123C0 5.39662 0 6.77482 0 8.6823V12.3179C0 16.0133 0.8736 17.8896 5.64873 17.8896H15.3511C17.669 17.8896 18.9534 17.5652 19.7843 16.77C20.6364 15.9545 21 14.6231 21 12.3179V8.6823C21 6.67071 20.943 5.28437 20.1815 4.37927ZM13.4821 11.0021L9.07627 13.3047C8.97777 13.3562 8.87006 13.3817 8.76249 13.3817C8.64069 13.3817 8.51916 13.3489 8.41152 13.2837C8.20883 13.1609 8.08507 12.9412 8.08507 12.7043V8.11381C8.08507 7.87726 8.20849 7.65777 8.41077 7.53489C8.61312 7.41201 8.86478 7.40361 9.07471 7.51267L13.4805 9.80045C13.7047 9.91683 13.8454 10.1482 13.8458 10.4007C13.846 10.6534 13.7059 10.8851 13.4821 11.0021Z" fill="white"/>
</svg>
