<svg width="30" height="30" viewBox="0 0 30 30" fill="none" xmlns="http://www.w3.org/2000/svg">
<rect width="30" height="30" rx="4" fill="#5F7DC9"/>
<g clip-path="url(#clip0)">
<path d="M9.76092 16.1026H11.9855V25.2607C11.9855 25.4416 12.132 25.5881 12.3128 25.5881H16.0846C16.2654 25.5881 16.412 25.4416 16.412 25.2607V16.1457H18.9693C19.1356 16.1457 19.2755 16.021 19.2944 15.8558L19.6828 12.4842C19.6935 12.3915 19.6641 12.2986 19.6021 12.229C19.5399 12.1593 19.451 12.1194 19.3577 12.1194H16.4121V10.006C16.4121 9.36887 16.7551 9.0458 17.4318 9.0458C17.5282 9.0458 19.3577 9.0458 19.3577 9.0458C19.5386 9.0458 19.6851 8.89923 19.6851 8.71848V5.62369C19.6851 5.44288 19.5386 5.29637 19.3577 5.29637H16.7035C16.6847 5.29545 16.6432 5.29395 16.5819 5.29395C16.1214 5.29395 14.5205 5.38435 13.256 6.54766C11.8549 7.8368 12.0497 9.38033 12.0962 9.64795V12.1194H9.76092C9.5801 12.1194 9.43359 12.2659 9.43359 12.4467V15.7752C9.43359 15.956 9.5801 16.1026 9.76092 16.1026Z" fill="white"/>
</g>
<defs>
<clipPath id="clip0">
<rect width="20.2941" height="20.2941" fill="white" transform="translate(4.41211 5.29395)"/>
</clipPath>
</defs>
</svg>
