<svg width="23" height="23" viewBox="0 0 23 23" fill="none" xmlns="http://www.w3.org/2000/svg">
<path d="M6.06164 12.2498H8.58281V22.629C8.58281 22.834 8.74886 23 8.95378 23H13.2285C13.4334 23 13.5995 22.834 13.5995 22.629V12.2987H16.4978C16.6862 12.2987 16.8448 12.1573 16.8663 11.9701L17.3065 8.14897C17.3186 8.04384 17.2853 7.93856 17.2149 7.85969C17.1445 7.78075 17.0438 7.73557 16.938 7.73557H13.5996V5.3403C13.5996 4.61825 13.9884 4.25211 14.7553 4.25211C14.8646 4.25211 16.938 4.25211 16.938 4.25211C17.143 4.25211 17.309 4.08599 17.309 3.88114V0.373713C17.309 0.16879 17.143 0.00274516 16.938 0.00274516H13.9299C13.9086 0.00170645 13.8615 0 13.7921 0C13.2701 0 11.4559 0.102461 10.0228 1.42088C8.43487 2.8819 8.6556 4.63124 8.70835 4.93454V7.73549H6.06164C5.85672 7.73549 5.69067 7.90154 5.69067 8.10646V11.8788C5.69067 12.0837 5.85672 12.2498 6.06164 12.2498Z" fill="white"/>
</svg>
