<svg width="20" height="20" viewBox="0 0 20 20" fill="none" xmlns="http://www.w3.org/2000/svg">
<path d="M4.5835 0.833374C6.66683 0.833374 8.3335 2.50004 8.3335 4.58337C8.3335 5.31671 8.12516 6.00004 7.7585 6.58337L7.84183 6.66671H12.1585L12.2418 6.58337C11.8752 6.00004 11.6668 5.31671 11.6668 4.58337C11.6668 2.50004 13.3335 0.833374 15.4168 0.833374C17.5002 0.833374 19.1668 2.50004 19.1668 4.58337C19.1668 6.66671 17.5002 8.33337 15.4168 8.33337C14.6835 8.33337 14.0002 8.12504 13.4168 7.75837L12.5002 8.67504V11.325L13.4168 12.2417C14.0002 11.875 14.6835 11.6667 15.4168 11.6667C17.5002 11.6667 19.1668 13.3334 19.1668 15.4167C19.1668 17.5 17.5002 19.1667 15.4168 19.1667C13.3335 19.1667 11.6668 17.5 11.6668 15.4167C11.6668 14.6834 11.8752 14 12.2418 13.4167L12.1585 13.3334H7.84183L7.7585 13.4167C8.12516 14 8.3335 14.6834 8.3335 15.4167C8.3335 17.5 6.66683 19.1667 4.5835 19.1667C2.50016 19.1667 0.833496 17.5 0.833496 15.4167C0.833496 13.3334 2.50016 11.6667 4.5835 11.6667C5.31683 11.6667 6.00016 11.875 6.5835 12.2417L7.50016 11.325V8.67504L6.5835 7.75837C6.00016 8.12504 5.31683 8.33337 4.5835 8.33337C2.50016 8.33337 0.833496 6.66671 0.833496 4.58337C0.833496 2.50004 2.50016 0.833374 4.5835 0.833374ZM4.5835 2.50004C3.4335 2.50004 2.50016 3.43337 2.50016 4.58337C2.50016 5.73337 3.4335 6.66671 4.5835 6.66671C5.7335 6.66671 6.66683 5.73337 6.66683 4.58337C6.66683 3.43337 5.7335 2.50004 4.5835 2.50004ZM4.5835 13.3334C3.4335 13.3334 2.50016 14.2667 2.50016 15.4167C2.50016 16.5667 3.4335 17.5 4.5835 17.5C5.7335 17.5 6.66683 16.5667 6.66683 15.4167C6.66683 14.2667 5.7335 13.3334 4.5835 13.3334ZM15.4168 2.50004C14.2668 2.50004 13.3335 3.43337 13.3335 4.58337C13.3335 5.73337 14.2668 6.66671 15.4168 6.66671C16.5668 6.66671 17.5002 5.73337 17.5002 4.58337C17.5002 3.43337 16.5668 2.50004 15.4168 2.50004ZM15.4168 13.3334C14.2668 13.3334 13.3335 14.2667 13.3335 15.4167C13.3335 16.5667 14.2668 17.5 15.4168 17.5C16.5668 17.5 17.5002 16.5667 17.5002 15.4167C17.5002 14.2667 16.5668 13.3334 15.4168 13.3334ZM3.2585 14.375L4.20016 14.925C4.3085 14.8417 4.44183 14.7917 4.5835 14.7917C4.92516 14.7917 5.2085 15.075 5.2085 15.4167L5.20016 15.5L6.14183 16.0417L5.9085 16.4584L4.96683 15.9084C4.8585 15.9917 4.72516 16.0417 4.5835 16.0417C4.24183 16.0417 3.9585 15.7584 3.9585 15.4167L3.96683 15.3334L3.02516 14.7917L3.2585 14.375ZM3.02516 5.20837L3.96683 4.66671L3.9585 4.58337C3.9585 4.24171 4.24183 3.95837 4.5835 3.95837C4.72516 3.95837 4.8585 4.00837 4.96683 4.09171L5.9085 3.54171L6.14183 3.95837L5.20016 4.50004L5.2085 4.58337C5.2085 4.92504 4.92516 5.20837 4.5835 5.20837C4.44183 5.20837 4.3085 5.15837 4.20016 5.07504L3.2585 5.62504L3.02516 5.20837ZM14.0918 3.54171L15.0335 4.09171C15.1418 4.00837 15.2752 3.95837 15.4168 3.95837C15.7585 3.95837 16.0418 4.24171 16.0418 4.58337L16.0335 4.66671L16.9752 5.20837L16.7418 5.62504L15.8002 5.07504C15.6918 5.15837 15.5585 5.20837 15.4168 5.20837C15.0752 5.20837 14.7918 4.92504 14.7918 4.58337L14.8002 4.50004L13.8585 3.95837L14.0918 3.54171ZM13.8585 16.0417L14.7918 15.4167C14.7918 15.075 15.0752 14.7917 15.4168 14.7917C15.5585 14.7917 15.6918 14.8417 15.8002 14.925L16.7418 14.375L16.9752 14.7917L16.0418 15.4167C16.0418 15.7584 15.7585 16.0417 15.4168 16.0417C15.2752 16.0417 15.1418 15.9917 15.0335 15.9084L14.0918 16.4584L13.8585 16.0417Z" fill="white"/>
</svg>
