<svg width="21" height="21" viewBox="0 0 21 21" fill="none" xmlns="http://www.w3.org/2000/svg">
<path d="M15.3155 0H5.6845C2.55001 0 0 2.55001 0 5.6845V15.3156C0 18.4499 2.55001 21 5.6845 21H15.3156C18.4499 21 21 18.4499 21 15.3156V5.6845C21 2.55001 18.4499 0 15.3155 0V0ZM10.5 16.242C7.33377 16.242 4.75796 13.6662 4.75796 10.5C4.75796 7.33377 7.33377 4.75796 10.5 4.75796C13.6662 4.75796 16.242 7.33377 16.242 10.5C16.242 13.6662 13.6662 16.242 10.5 16.242ZM16.3793 6.11212C15.4436 6.11212 14.6826 5.35109 14.6826 4.41542C14.6826 3.47975 15.4436 2.71856 16.3793 2.71856C17.315 2.71856 18.0762 3.47975 18.0762 4.41542C18.0762 5.35109 17.315 6.11212 16.3793 6.11212Z" fill="white"/>
<path d="M10.4999 5.98901C8.01271 5.98901 5.98901 8.01255 5.98901 10.4999C5.98901 12.9871 8.01271 15.0108 10.4999 15.0108C12.9873 15.0108 15.0108 12.9871 15.0108 10.4999C15.0108 8.01255 12.9873 5.98901 10.4999 5.98901Z" fill="white"/>
<path d="M16.3794 3.94995C16.1227 3.94995 15.9138 4.15887 15.9138 4.41554C15.9138 4.67221 16.1227 4.88113 16.3794 4.88113C16.6362 4.88113 16.8452 4.67237 16.8452 4.41554C16.8452 4.15871 16.6362 3.94995 16.3794 3.94995Z" fill="white"/>
</svg>
