<svg width="30" height="30" viewBox="0 0 30 30" fill="none" xmlns="http://www.w3.org/2000/svg">
<rect width="30" height="30" rx="4" fill="#8B97B5"/>
<path d="M12.917 16.2915C13.257 16.746 13.6907 17.1221 14.1888 17.3942C14.687 17.6664 15.2378 17.8282 15.8039 17.8687C16.3701 17.9093 16.9383 17.8276 17.4701 17.6292C18.0019 17.4308 18.4849 17.1204 18.8862 16.719L21.2612 14.344C21.9822 13.5974 22.3812 12.5975 22.3722 11.5597C22.3631 10.5218 21.9468 9.52902 21.2129 8.79511C20.479 8.0612 19.4862 7.64491 18.4484 7.63589C17.4105 7.62687 16.4106 8.02585 15.6641 8.74689L14.3024 10.1006" stroke="white" stroke-width="2" stroke-linecap="round" stroke-linejoin="round"/>
<path d="M16.0832 14.7085C15.7433 14.254 15.3095 13.8779 14.8114 13.6057C14.3133 13.3336 13.7625 13.1718 13.1963 13.1312C12.6302 13.0907 12.0619 13.1723 11.5301 13.3707C10.9983 13.5691 10.5154 13.8795 10.1141 14.281L7.73908 16.656C7.01804 17.4025 6.61906 18.4024 6.62808 19.4403C6.6371 20.4781 7.05339 21.4709 7.7873 22.2048C8.52121 22.9387 9.51401 23.355 10.5519 23.3641C11.5897 23.3731 12.5896 22.9741 13.3362 22.2531L14.6899 20.8993" stroke="white" stroke-width="2" stroke-linecap="round" stroke-linejoin="round"/>
</svg>
