<svg width="29" height="26" viewBox="0 0 29 26" fill="none" xmlns="http://www.w3.org/2000/svg">
<path d="M17.25 0.75C11.1725 0.75 6.25 5.6725 6.25 11.75C6.25 17.8275 11.1725 22.75 17.25 22.75C23.3275 22.75 28.25 17.8275 28.25 11.75H25.5C25.5 16.315 21.815 20 17.25 20C12.6988 20 9 16.3012 9 11.75C9 7.19875 12.6988 3.5 17.25 3.5C17.8413 3.5 18.4325 3.56875 18.9963 3.6925L21.21 1.4925C19.945 0.9975 18.625 0.75 17.25 0.75ZM26.3113 2.9225L17.25 11.9838L13.9775 8.71125L12.0388 10.6637L17.25 15.875L28.25 4.875L26.3113 2.9225ZM4.77875 6.0025C2.235 8.0925 0.75 11.2137 0.75 14.5C0.75 20.5775 5.6725 25.5 11.75 25.5C12.63 25.5 13.4963 25.39 14.335 25.1838C11.915 24.6475 9.6875 23.4375 7.85875 21.7738C5.1775 20.3438 3.5 17.5387 3.5 14.5C3.5 14.0875 3.54125 13.6887 3.59625 13.2762C3.54125 12.7675 3.5 12.2587 3.5 11.75C3.5 9.77 3.94 7.80375 4.77875 6.0025Z" fill="#0A4EFF"/>
</svg>
