<svg width="46" height="46" viewBox="0 0 46 46" fill="none" xmlns="http://www.w3.org/2000/svg">
<path d="M38.3333 11.5C39.3919 11.5 40.25 12.3581 40.25 13.4167V13.4167C40.25 14.4752 39.3919 15.3333 38.3333 15.3333H7.66667C6.60812 15.3333 5.75 14.4752 5.75 13.4167V13.4167C5.75 12.3581 6.60812 11.5 7.66667 11.5H38.3333ZM5.75 32.5833C5.75 33.6419 6.60812 34.5 7.66667 34.5H38.3333C39.3919 34.5 40.25 33.6419 40.25 32.5833V32.5833C40.25 31.5248 39.3919 30.6667 38.3333 30.6667H7.66667C6.60812 30.6667 5.75 31.5248 5.75 32.5833V32.5833ZM5.75 23C5.75 24.0585 6.60812 24.9167 7.66667 24.9167H38.3333C39.3919 24.9167 40.25 24.0585 40.25 23V23C40.25 21.9415 39.3919 21.0833 38.3333 21.0833H7.66667C6.60812 21.0833 5.75 21.9415 5.75 23V23Z" fill="#0A4EFF"/>
</svg>
