<svg width="30" height="30" viewBox="0 0 30 30" fill="none" xmlns="http://www.w3.org/2000/svg">
<path d="M26 0H4C1.79086 0 0 1.79086 0 4V26C0 28.2091 1.79086 30 4 30H26C28.2091 30 30 28.2091 30 26V4C30 1.79086 28.2091 0 26 0Z" fill="#44678D"/>
<path d="M8.82517 11.2387C9.43935 12.6788 10.2177 14.0366 11.2429 15.2555C11.3789 15.4177 11.5503 15.5619 11.7309 15.6793C11.9946 15.8513 12.2434 15.7908 12.3507 15.5044C12.4641 15.2038 12.5682 14.5946 12.5744 14.2789C12.5913 13.4541 12.5718 12.9136 12.5252 12.0898C12.4949 11.5621 12.2974 11.0989 11.48 10.959C11.2275 10.9157 11.2041 10.7184 11.3663 10.5216C11.7039 10.1118 12.1742 10.0465 12.6843 10.0207C13.5109 9.9783 14.3406 10.0129 15.1682 10.0207C15.5053 10.0236 15.8445 10.0494 16.1765 10.1181C16.6095 10.2078 16.8414 10.4962 16.9128 10.8976C16.9497 11.1047 16.9688 11.3176 16.9636 11.5271C16.942 12.4274 16.8964 13.3272 16.8856 14.227C16.881 14.5802 16.9081 14.9422 16.9877 15.2862C17.099 15.7655 17.4428 15.8859 17.7943 15.5395C18.2407 15.0996 18.6343 14.6046 19.0037 14.1019C19.6748 13.1874 20.1761 12.1838 20.6076 11.1491C20.8308 10.6152 21.0017 10.4992 21.6066 10.4978C22.7437 10.4953 23.8807 10.4943 25.0178 10.4978C25.2194 10.4987 25.4303 10.5168 25.6206 10.5743C25.9295 10.6678 26.0522 10.907 25.9798 11.2106C25.811 11.9219 25.4062 12.5264 24.9726 13.1076C24.2768 14.0401 23.5477 14.9502 22.8356 15.8719C22.7447 15.9893 22.6647 16.1145 22.5903 16.2416C22.3239 16.6986 22.3424 16.9549 22.7308 17.3353C23.3491 17.9409 24.0111 18.5075 24.6098 19.1296C25.045 19.5822 25.4477 20.0733 25.7925 20.5902C26.2287 21.2439 25.9593 21.8597 25.1445 21.9693C24.6319 22.0381 22.1281 21.9699 21.9987 21.9693C21.3255 21.9665 20.7355 21.7448 20.2603 21.3107C19.7318 20.8274 19.2515 20.2973 18.7441 19.7931C18.5912 19.6411 18.428 19.4954 18.252 19.3683C17.8369 19.0677 17.4295 19.1344 17.2355 19.5973C17.0698 19.9948 16.9266 21.0388 16.9199 21.128C16.8851 21.5942 16.5726 21.8914 16.0225 21.9201C14.4345 22.002 12.8956 21.8339 11.4621 21.1046C10.247 20.4868 9.27678 19.6133 8.43632 18.5947C7.10122 16.9766 6.04667 15.1981 5.08389 13.3673C5.03469 13.2737 4.05954 11.3035 4.03334 11.2104C3.94623 10.8988 4.02749 10.6012 4.30477 10.4987C4.47764 10.4349 7.69274 10.4985 7.74622 10.5012C8.25924 10.5276 8.60907 10.7331 8.82517 11.2387Z" fill="white"/>
</svg>
